<svg width="90" height="89" viewBox="0 0 90 89" fill="none" xmlns="http://www.w3.org/2000/svg">
<path d="M30.274 39.1236C27.7072 38.6234 25.3162 40.6588 25.3162 43.2288V51.922C25.3162 53.6813 26.5645 55.0957 28.2522 55.7166C31.4519 56.8895 33.755 59.9253 33.755 63.4784C33.755 68.0493 29.9751 71.7577 25.3162 71.7577C20.6574 71.7577 16.8775 68.0493 16.8775 63.4784V20.7023C16.8775 18.4083 14.9964 16.5627 12.6581 16.5627H4.21937C1.88114 16.5627 0 18.4083 0 20.7023V63.4784C0 78.9158 14.4338 91.1105 30.7663 87.747C40.3302 85.7807 48.0481 78.1914 50.0523 68.8255C53.1114 54.5265 43.5475 41.7109 30.274 39.1236ZM36.7437 0.00418039C35.1263 -0.0820618 33.755 1.17707 33.755 2.76393V8.21444C33.755 9.68056 34.9153 10.8879 36.3921 10.9569C59.1416 12.1643 77.4255 30.2752 78.7441 52.6119C78.832 54.0608 80.0626 55.1992 81.5394 55.1992H87.1828C88.8002 55.1992 90.0836 53.8538 89.9957 52.267C88.5014 24.1175 65.4355 1.48755 36.7437 0.00418039ZM36.7965 16.5627C35.1615 16.4419 33.755 17.7183 33.755 19.3397V24.8764C33.755 26.3253 34.8977 27.5154 36.3569 27.6189C49.8589 28.7056 60.6183 39.3824 61.8314 52.6637C61.9721 54.0953 63.1676 55.1992 64.6268 55.1992H70.2877C71.9228 55.1992 73.2413 53.8193 73.1182 52.2152C71.6415 33.2247 56.1528 18.0288 36.7965 16.5627Z" fill="#006365"/>
</svg>
